<svg width="126" height="40" viewBox="0 0 126 40" fill="none" xmlns="http://www.w3.org/2000/svg">
<path d="M13.7349 32H8V8H25.9978V12.8593H13.7349V17.4815H24.8996V22.3407H13.7349V32Z" fill="#090909"/>
<path d="M29.0554 32V8H34.7903V27.1407H47.2362V32H29.0554Z" fill="#090909"/>
<path d="M68.6996 32H50.3968V8H68.6996V12.8593H56.1317V17.1852H67.6015V21.9259H56.1317V27.1407H68.6996V32Z" fill="#090909"/>
<path d="M90.9704 32H72.6676V8H90.9704V12.8593H78.4025V17.1852H89.8723V21.9259H78.4025V27.1407H90.9704V32Z" fill="#090909"/>
<path d="M94.9384 32V8H100.673V17.2444H100.795L110.801 8H117.817L107.201 17.6889L118 32H111.228L103.175 21.1556L100.673 23.1111V32H94.9384Z" fill="#090909"/>
</svg>
