<svg width="240" height="40" viewBox="0 0 240 40" fill="none" xmlns="http://www.w3.org/2000/svg">
<path d="M214.966 12.1376H215.11C215.44 13.6544 215.583 14.3456 215.918 15.4464L217.863 22.896H212.167L214.113 15.4464C214.398 14.3456 214.589 13.6544 214.966 12.1376ZM220.136 31.6784H225.5L218.764 8.456H211.455L204.67 31.68H209.748L211.264 26.4832H218.619L220.136 31.6784ZM193.044 31.9984C195.986 31.9984 198.833 31.3104 200.686 30.5744V18.944H192.427V22.6672H195.798V27.8608C195.18 28.2288 194.134 28.4608 192.999 28.4608C189.488 28.4608 188.395 26.76 188.395 21.8416V18.848C188.395 13.976 189.437 11.584 192.665 11.584C194.895 11.584 195.658 13.056 195.708 14.6208H200.785C200.729 10.528 197.696 8 192.663 8C185.637 8 183.079 11.952 183.079 18.3472V21.7504C183.03 28.6912 185.453 32 193.042 32M169.275 12.1376H169.42C169.75 13.6544 169.895 14.3456 170.225 15.4464L172.173 22.896H166.478L168.423 15.4464C168.706 14.3456 168.896 13.6544 169.275 12.1376ZM174.448 31.68H179.805L173.073 8.456H165.761L158.982 31.68H164.059L165.576 26.4832H172.928L174.448 31.6784V31.68ZM148.823 31.68H153.9V8.456H148.823V31.68ZM134.874 32C140.518 32 143.271 29.4688 143.413 24.7392H138.291C138.195 27.0368 137.434 28.4608 135.017 28.4608C132.268 28.4608 131.226 26.5776 131.226 21.7504V18.3472C131.226 13.472 132.268 11.6352 135.017 11.6352C137.582 11.6352 138.008 13.2912 138.1 15.0384H143.223C143.174 10.992 140.803 8.096 134.876 8.096C128.278 8.096 125.862 12.096 125.862 18.3472V21.7504C125.862 28.048 128.277 32 134.874 32ZM100.52 31.68H105.031V18.208C105.031 16.3232 104.932 14.024 104.836 12.1376H104.984C105.693 14.528 106.072 15.7696 106.737 17.5616L112.005 31.68H119.407V8.456H114.898V21.3808C114.898 23.0768 114.948 25.3328 114.994 27.4928H114.852C114.473 25.8816 114.137 24.272 113.141 21.6528L108.207 8.4576H100.476V31.68H100.52ZM79.8325 31.68H93.6398V27.952H84.9097V21.5152H92.8305V17.7488H84.9081V12.1376H93.3068V8.4128H79.8276V31.6768L79.8325 31.68ZM61.2827 31.68H74.5691V27.952H66.3598V8.4576H61.2827V31.68ZM45.5302 12.136H45.6736C46.0033 13.6528 46.1516 14.344 46.4813 15.4448L48.4265 22.8944H42.7344L44.6796 15.4448C44.9631 14.344 45.1543 13.6528 45.5318 12.136M50.703 31.68H56.0654L49.3265 8.456H42.0207L35.234 31.68H40.3112L41.8278 26.4832H49.1848L50.7046 31.6784L50.703 31.68ZM19.6233 28.1376V21.3824H22.7092C25.3187 21.3824 26.5501 22.5312 26.5501 24.7808C26.5501 27.2608 24.9379 28.1856 22.6136 28.1856H19.6233V28.1376ZM19.6233 17.8384V12H22.8048C25.1258 12 26.1231 13.008 26.1231 14.896C26.1231 16.784 24.9907 17.84 22.8526 17.84L19.6233 17.8384ZM14.5462 31.68H23.5137C28.5414 31.68 31.624 29.928 31.624 25.104C31.624 22.0224 29.7777 19.9104 26.3589 19.584V19.4496C29.392 18.944 31.1987 17.3344 31.1987 14.2544C31.1987 10.2512 28.8249 8.4592 23.751 8.4592H14.5V31.68H14.5462Z" fill="#090909"/>
</svg>
