<svg width="240" height="40" viewBox="0 0 240 40" fill="none" xmlns="http://www.w3.org/2000/svg">
<path fill-rule="evenodd" clip-rule="evenodd" d="M66.2415 33.1966V6.98045H75.5866V33.1954L66.2415 33.1966ZM182.259 33.1966V6.98045H191.603V33.1954L182.259 33.1966ZM165.327 33.1895V17.2403C165.327 15.9017 164.933 14.8134 164.146 13.9742C163.357 13.1361 162.331 12.7206 161.083 12.7206C160.748 12.7198 160.414 12.7526 160.086 12.8186C160.003 12.0398 159.861 11.2681 159.662 10.5098C159.276 9.09332 158.665 7.80199 157.82 6.63578C157.324 5.97487 156.769 5.35755 156.164 4.79085C157.647 4.2644 159.29 4 161.092 4C163.278 4 165.336 4.47215 167.247 5.42589C169.162 6.38255 170.819 7.76911 172.082 9.47223C172.929 10.6444 173.553 11.9568 173.924 13.3462C174.307 14.752 174.503 16.5356 174.503 18.6744V33.1872H165.327V33.1895ZM147.673 33.1966V17.2497C147.673 15.91 147.279 14.8205 146.49 13.9836C145.704 13.1444 144.681 12.7301 143.43 12.7301C142.189 12.7301 141.164 13.1444 140.367 13.9836C139.569 14.8205 139.166 15.91 139.166 17.2497V33.1966H130.018V18.6839C130.018 14.2032 131.249 10.6384 133.7 7.98849C136.153 5.33736 139.393 4.00827 143.44 4.00827C145.626 4.00827 147.684 4.48042 149.594 5.43416C151.51 6.39182 153.167 7.77863 154.431 9.48167C155.279 10.6537 155.902 11.9662 156.271 13.3557C156.655 14.7627 156.852 16.5439 156.852 18.6839V33.1954L147.673 33.1966ZM49.3102 33.1895V17.2403C49.3102 15.9017 48.9158 14.8134 48.1281 13.9742C47.3404 13.1361 46.3162 12.7206 45.0653 12.7206C44.7155 12.7206 44.3838 12.7549 44.0677 12.8186C43.9846 12.0398 43.8427 11.2681 43.6431 10.5098C43.2739 9.12016 42.6502 7.8076 41.8023 6.63578C41.3064 5.97429 40.7518 5.35691 40.1449 4.79085C41.6286 4.2644 43.2716 4 45.0738 4C47.2595 4 49.3175 4.47215 51.2282 5.42589C53.1434 6.38255 54.8002 7.76911 56.063 9.47223C56.9106 10.6442 57.5343 11.9567 57.9037 13.3462C58.2873 14.752 58.484 16.5356 58.484 18.6744V33.1872H49.3102V33.1895ZM31.6563 33.1966V17.2497C31.6563 15.91 31.2619 14.8205 30.4754 13.9836C29.6865 13.1444 28.6635 12.7301 27.4126 12.7301C26.1714 12.7301 25.1472 13.1444 24.3487 13.9836C23.5513 14.8205 23.1472 15.91 23.1472 17.2497V33.1966H14V18.6839C14 14.2032 15.2304 10.6384 17.684 7.98849C20.1363 5.33736 23.374 4.00827 27.4223 4.00827C29.6081 4.00827 31.6672 4.48042 33.5779 5.43416C35.4932 6.39123 37.15 7.77818 38.4127 9.48167C39.2608 10.6534 39.8845 11.966 40.2535 13.3557C40.6371 14.7627 40.8349 16.5439 40.8349 18.6839V33.1954L31.6563 33.1966ZM92.2996 6.99816V22.9557C92.2996 24.2954 92.7025 25.3837 93.5011 26.2206C93.7761 26.511 94.0765 26.7482 94.4058 26.9371V35.9811C93.0171 35.7782 91.6706 35.3586 90.4178 34.7382C88.5372 33.8045 86.9413 32.4648 85.6325 30.7202C84.7641 29.5329 84.1236 28.201 83.7422 26.7895C83.3478 25.3648 83.1512 23.6013 83.1512 21.5191V6.99816H92.2996ZM208.315 6.99816V22.9557C208.315 24.2954 208.72 25.3837 209.516 26.2206C209.792 26.511 210.094 26.7482 210.423 26.9371V35.9811C209.034 35.7784 207.687 35.3587 206.434 34.7382C204.554 33.8045 202.959 32.4648 201.649 30.7202C200.781 29.5325 200.14 28.2007 199.757 26.7895C199.364 25.3648 199.169 23.6013 199.169 21.5191V6.99816H208.315ZM214.747 26.9347C215.072 26.7458 215.374 26.5086 215.642 26.2206C216.428 25.3837 216.824 24.2954 216.824 22.9557V6.99816H226V21.5191C226 25.9703 224.77 29.5256 222.317 32.1661C220.32 34.3262 217.796 35.6034 214.745 36L214.747 26.9347ZM98.7303 26.9347C99.056 26.7458 99.3551 26.5086 99.6253 26.2206C100.413 25.3837 100.806 24.2954 100.806 22.9557V6.99816H109.984V21.5191C109.984 25.9703 108.752 29.5256 106.3 32.1661C104.302 34.3262 101.779 35.6034 98.7291 36L98.7303 26.9347Z" fill="#090909"/>
</svg>
