<svg width="240" height="40" viewBox="0 0 240 40" fill="none" xmlns="http://www.w3.org/2000/svg">
<path d="M78.3469 1.77378C71.0592 10.2667 64.0706 20.7998 64.0006 28.6723C63.9732 31.6346 64.9267 34.2205 67.2132 36.1804C70.5023 38.999 74.1245 39.9953 77.7315 40C83.0032 40.007 88.2371 37.8963 92.3363 36.2706C99.2383 33.5309 175.528 0.655271 175.528 0.655271C176.264 0.289871 176.126 -0.167006 175.205 0.0612609C174.834 0.154113 92.1505 22.3889 92.1505 22.3889C90.5547 22.8341 88.9249 23.0644 87.3379 23.0727C80.9843 23.1096 75.33 19.6102 75.3757 12.2339C75.3932 9.34745 76.2856 5.86818 78.3469 1.77378Z" fill="#090909"/>
</svg>
