<svg width="240" height="40" viewBox="0 0 240 40" fill="none" xmlns="http://www.w3.org/2000/svg">
<path fill-rule="evenodd" clip-rule="evenodd" d="M23.6302 35.9977H20.8205C20.5861 35.9977 20 35.9977 20 35.6351C20 35.3945 20.1172 35.2725 20.4689 35.1516C23.0453 34.3056 23.6302 32.8576 23.6302 30.8065V9.1935C23.6302 7.2609 23.0441 5.81174 20.4689 4.84603C20.1172 4.84603 20 4.60431 20 4.48345C20 4.00118 20.5861 4.12087 20.8205 4.12087H44.0048C49.2737 4.12087 53.6072 8.46717 53.6072 13.9C53.6072 19.3341 49.2737 23.6792 44.0048 23.6792H32.2949V31.0447C32.4132 32.9761 32.9982 34.3033 35.4574 35.1493C35.809 35.2713 35.9251 35.3922 35.9251 35.6327C35.9251 35.9953 35.3401 35.9953 35.1057 35.9953H23.6302V35.9977ZM196.464 24.2859H201.967L196.464 14.6264L195.877 13.6595L190.961 24.2859H196.464ZM196.464 4.00235H200.211L215.901 32.4985C216.37 33.2202 216.955 33.9465 217.659 34.3068C218.244 34.7902 218.946 34.9123 219.531 35.1528C219.767 35.2748 220 35.3957 220 35.6362C220 35.9988 219.415 35.9988 219.18 35.9988H205.246C205.013 35.9988 204.308 35.9988 204.308 35.6362C204.308 35.3957 204.544 35.2737 204.779 35.1528C205.481 34.9123 205.948 34.5497 206.181 33.8257C206.417 32.9797 206.181 32.4985 205.596 31.4096C204.801 29.6672 203.982 27.9367 203.138 26.2185H190.023L189.907 26.459C189.789 26.9425 188.853 28.6322 188.149 30.4439C187.213 32.3753 186.862 32.8576 187.095 33.8245C187.213 34.5485 187.797 34.9111 188.499 35.1516C188.735 35.2737 188.853 35.3945 188.853 35.6351C188.853 35.9977 188.266 35.9977 188.033 35.9977H181.592C181.358 35.9977 180.771 35.9977 180.771 35.6351C180.771 35.3945 180.889 35.2725 181.24 35.1516C181.827 34.9111 182.527 34.789 183.113 34.3056C183.815 33.9454 184.402 33.219 184.869 32.4974L185.69 30.6845L194.589 11.4875L193.299 9.1935C192.131 7.2609 190.958 6.05347 189.67 5.32947C189.085 4.96689 188.499 4.96689 187.914 4.72517C187.563 4.60431 187.445 4.48345 187.563 4.24172C187.563 4 187.796 4.12086 187.914 4H196.464V4.00235ZM161.451 35.8756H161.92C183.467 35.8756 183.234 4.12204 161.92 4.12204H144.239C143.888 4.12204 143.304 4.00118 143.304 4.48462C143.304 4.60548 143.537 4.8472 143.77 4.8472C146.347 5.69205 146.933 7.14121 147.049 8.95295V31.0482C146.933 32.9796 146.347 34.3068 143.77 35.1528C143.537 35.2748 143.304 35.3957 143.304 35.6362C143.304 35.9988 143.889 35.9988 144.239 35.9988H155.598V35.8768L161.451 35.8756ZM161.451 6.41605C164.732 6.41605 167.426 9.19351 167.426 12.5729V27.3039C167.426 30.6845 164.732 33.4619 161.451 33.4619H155.596V6.41605H161.451ZM116.839 24.2859H122.342L116.839 14.6264L116.254 13.6595L111.336 24.2859H116.839ZM116.839 4.00235H120.703L136.394 32.4985C136.746 33.2202 137.332 33.9465 138.034 34.3068C138.619 34.7902 139.323 34.9123 140.025 35.1528C140.259 35.2748 140.492 35.3957 140.492 35.6362C140.492 35.9988 139.79 35.9988 139.556 35.9988H125.624C125.388 35.9988 124.803 35.9988 124.803 35.6362C124.803 35.3957 124.92 35.2737 125.27 35.1528C125.857 34.9123 126.441 34.5497 126.559 33.8257C126.793 32.9797 126.559 32.4985 126.091 31.4096C125.27 29.5991 124.335 27.9082 123.516 26.2185H110.398L110.282 26.459C110.164 26.9425 109.344 28.6322 108.524 30.4439C107.705 32.3753 107.237 32.8576 107.472 33.8245C107.706 34.5485 108.174 34.9111 108.877 35.1516C109.111 35.2737 109.345 35.3945 109.345 35.6351C109.345 35.9977 108.76 35.9977 108.41 35.9977H102.085C101.85 35.9977 101.147 35.9977 101.147 35.6351C101.147 35.3945 101.381 35.2725 101.616 35.1516C102.319 34.9111 102.904 34.789 103.607 34.3056C104.192 33.9454 104.895 33.219 105.246 32.4974L106.065 30.6845L115.083 11.4875L113.795 9.1935C112.624 7.2609 111.335 6.05347 110.164 5.32947C109.461 4.96689 108.993 4.96689 108.29 4.72517C108.056 4.60431 107.821 4.48345 107.94 4.24172C108.056 4 108.29 4.12086 108.408 4H116.839V4.00235ZM78.197 25.1319C80.8906 26.0964 84.1692 26.337 86.7444 25.4945L96.9329 34.5497L97.7522 35.2737C97.8706 35.3957 97.8706 35.5142 97.8706 35.6362C97.8706 35.9988 97.2845 35.9988 97.0501 35.9988H86.2779L78.1981 29.1168L71.6398 23.6827V31.1703C71.7582 32.9808 72.4603 34.3079 74.9184 35.154C75.1528 35.276 75.27 35.3969 75.27 35.6374C75.27 36 74.684 36 74.4496 36H60.2804C59.9299 36 59.3438 36 59.3438 35.6374C59.3438 35.3969 59.5783 35.2748 59.8115 35.154C62.6224 34.1894 62.974 32.7403 63.0901 30.4463V9.55491C62.9729 7.38176 62.6213 5.81174 59.8115 4.84603C59.5771 4.84603 59.3438 4.60431 59.3438 4.48345C59.3438 4.00118 59.9299 4.12087 60.2804 4.12087H83.1142C84.3612 4.11543 85.5969 4.36466 86.75 4.85417C87.9031 5.34369 88.9508 6.06379 89.8326 6.97294C90.7144 7.88208 91.4129 8.96228 91.8878 10.1512C92.3627 11.3401 92.6045 12.6142 92.5994 13.9C92.6047 15.1859 92.3629 16.4601 91.8881 17.6491C91.4133 18.8381 90.7148 19.9183 89.8329 20.8275C88.9511 21.7367 87.9034 22.4568 86.7502 22.9462C85.597 23.4357 84.3613 23.6848 83.1142 23.6792H75.7378C76.0894 24.4032 76.9088 24.6461 77.6109 25.0087C77.8453 25.0099 77.9625 25.1319 78.197 25.1319ZM78.197 21.3887H79.1335C82.1777 21.3887 84.7541 18.007 84.7541 13.6595C84.7541 9.43405 82.1777 6.05346 79.1335 6.05346H71.6387V21.3887H78.197ZM38.9692 6.05464H32.2949V21.3899H40.0241C43.1855 21.3899 45.6447 18.0081 45.6447 13.6607C45.6447 9.43523 43.1855 6.05464 40.0241 6.05464H38.9692Z" fill="#090909"/>
</svg>
